# xmcd
#
# Track frame offsets:
#	150
#	21187
#	42347
#
# Disc length: 839 seconds
#
# Revision: 2
# Processed by: cddbd v1.4PL0 Copyright (c) Steve Scherf et al.
# Submitted via: EZCDDA 4.3.2
#
DISCID=1d034503
DTITLE=gloria estefan - corazon prohibido
DYEAR=1900
DGENRE=
TTITLE0=corazon prohibido
TTITLE1=corazon prohibido-remix
TTITLE2=heaven what i feel
EXTD=
EXTT0=
EXTT1=
EXTT2=
PLAYORDER=
